<svg width="25" height="24" viewBox="0 0 25 24" fill="none" xmlns="http://www.w3.org/2000/svg">
<path d="M19.625 5.25H17.0262L15.7484 3.33375C15.68 3.23114 15.5873 3.147 15.4785 3.08879C15.3698 3.03057 15.2483 3.00007 15.125 3H9.125C9.00165 3.00007 8.88022 3.03057 8.77148 3.08879C8.66273 3.147 8.57002 3.23114 8.50156 3.33375L7.22281 5.25H4.625C4.02826 5.25 3.45597 5.48705 3.03401 5.90901C2.61205 6.33097 2.375 6.90326 2.375 7.5V18C2.375 18.5967 2.61205 19.169 3.03401 19.591C3.45597 20.0129 4.02826 20.25 4.625 20.25H19.625C20.2217 20.25 20.794 20.0129 21.216 19.591C21.6379 19.169 21.875 18.5967 21.875 18V7.5C21.875 6.90326 21.6379 6.33097 21.216 5.90901C20.794 5.48705 20.2217 5.25 19.625 5.25ZM20.375 18C20.375 18.1989 20.296 18.3897 20.1553 18.5303C20.0147 18.671 19.8239 18.75 19.625 18.75H4.625C4.42609 18.75 4.23532 18.671 4.09467 18.5303C3.95402 18.3897 3.875 18.1989 3.875 18V7.5C3.875 7.30109 3.95402 7.11032 4.09467 6.96967C4.23532 6.82902 4.42609 6.75 4.625 6.75H7.625C7.74851 6.75008 7.87012 6.71966 7.97905 6.66143C8.08797 6.60321 8.18083 6.51899 8.24938 6.41625L9.52625 4.5H14.7228L16.0006 6.41625C16.0692 6.51899 16.162 6.60321 16.271 6.66143C16.3799 6.71966 16.5015 6.75008 16.625 6.75H19.625C19.8239 6.75 20.0147 6.82902 20.1553 6.96967C20.296 7.11032 20.375 7.30109 20.375 7.5V18ZM12.125 8.25C11.3092 8.25 10.5116 8.49193 9.83327 8.94519C9.15492 9.39845 8.62621 10.0427 8.314 10.7964C8.00179 11.5502 7.9201 12.3796 8.07926 13.1797C8.23843 13.9799 8.63129 14.7149 9.20818 15.2918C9.78508 15.8687 10.5201 16.2616 11.3203 16.4207C12.1204 16.5799 12.9498 16.4982 13.7036 16.186C14.4573 15.8738 15.1016 15.3451 15.5548 14.6667C16.0081 13.9884 16.25 13.1908 16.25 12.375C16.2488 11.2814 15.8138 10.2329 15.0404 9.45955C14.2671 8.68624 13.2186 8.25124 12.125 8.25ZM12.125 15C11.6058 15 11.0983 14.846 10.6666 14.5576C10.2349 14.2692 9.8985 13.8592 9.69982 13.3795C9.50114 12.8999 9.44915 12.3721 9.55044 11.8629C9.65172 11.3537 9.90173 10.886 10.2688 10.5188C10.636 10.1517 11.1037 9.90172 11.6129 9.80044C12.1221 9.69915 12.6499 9.75114 13.1295 9.94982C13.6092 10.1485 14.0192 10.4849 14.3076 10.9166C14.596 11.3483 14.75 11.8558 14.75 12.375C14.75 13.0712 14.4734 13.7389 13.9812 14.2312C13.4889 14.7234 12.8212 15 12.125 15Z" fill="black"/>
</svg>
