<svg width="24" height="24" viewBox="0 0 24 24" fill="none" xmlns="http://www.w3.org/2000/svg">
<path opacity="0.2" d="M20.9944 16.32C20.8487 17.4085 20.3127 18.407 19.486 19.1299C18.6593 19.8528 17.5982 20.2509 16.5 20.25C13.1185 20.25 9.87548 18.9067 7.48439 16.5156C5.0933 14.1245 3.75 10.8815 3.75 7.50002C3.74916 6.40184 4.1472 5.34073 4.87009 4.51402C5.59298 3.68732 6.59152 3.1513 7.68 3.00565C7.84091 2.98653 8.00368 3.02004 8.14395 3.10116C8.28422 3.18228 8.39444 3.30665 8.45813 3.45565L10.4391 7.88065C10.4877 7.9943 10.5076 8.11822 10.4968 8.24139C10.486 8.36455 10.4449 8.48313 10.3772 8.58659L8.37375 10.9688C8.30269 11.076 8.26066 11.1998 8.25179 11.3282C8.24291 11.4565 8.2675 11.585 8.32313 11.701C9.09844 13.2882 10.7391 14.9091 12.3309 15.6769C12.4475 15.7323 12.5766 15.7563 12.7053 15.7466C12.834 15.7369 12.958 15.6938 13.065 15.6216L15.4088 13.6247C15.5126 13.5556 15.6321 13.5135 15.7563 13.5022C15.8806 13.4909 16.0057 13.5108 16.1203 13.56L20.5416 15.541C20.6913 15.6042 20.8163 15.7144 20.898 15.8549C20.9797 15.9954 21.0135 16.1586 20.9944 16.32Z" fill="black"/>
<path d="M20.8472 14.8556L16.4306 12.8766L16.4184 12.871C16.1892 12.7729 15.939 12.7335 15.6907 12.7565C15.4424 12.7794 15.2037 12.8638 14.9963 13.0022C14.9718 13.0183 14.9484 13.0359 14.9259 13.0547L12.6441 15C11.1984 14.2978 9.70595 12.8166 9.00376 11.3897L10.9519 9.07315C10.9706 9.04971 10.9884 9.02627 11.0053 9.00096C11.1407 8.79406 11.2229 8.55689 11.2445 8.31056C11.2661 8.06423 11.2264 7.81639 11.1291 7.58909V7.57784L9.14438 3.15377C9.0157 2.85683 8.79444 2.60948 8.51362 2.44862C8.2328 2.28777 7.9075 2.22205 7.58626 2.26127C6.31592 2.42844 5.14986 3.05231 4.30588 4.01636C3.4619 4.98042 2.99771 6.21873 3.00001 7.50002C3.00001 14.9438 9.05626 21 16.5 21C17.7813 21.0023 19.0196 20.5381 19.9837 19.6941C20.9477 18.8502 21.5716 17.6841 21.7388 16.4138C21.7781 16.0926 21.7125 15.7674 21.5518 15.4866C21.3911 15.2058 21.144 14.9845 20.8472 14.8556ZM16.5 19.5C13.3185 19.4965 10.2682 18.2311 8.01856 15.9815C5.76888 13.7318 4.50348 10.6816 4.50001 7.50002C4.49648 6.58454 4.82631 5.69908 5.42789 5.009C6.02947 4.31892 6.86167 3.8714 7.76907 3.75002C7.7687 3.75376 7.7687 3.75753 7.76907 3.76127L9.73782 8.16752L7.80001 10.4869C7.78034 10.5095 7.76247 10.5337 7.74657 10.5591C7.60549 10.7756 7.52273 11.0248 7.5063 11.2827C7.48988 11.5406 7.54035 11.7983 7.65282 12.031C8.5022 13.7681 10.2525 15.5053 12.0084 16.3538C12.2428 16.4652 12.502 16.5139 12.7608 16.4952C13.0196 16.4765 13.2692 16.3909 13.485 16.2469C13.5091 16.2307 13.5322 16.2132 13.5544 16.1944L15.8334 14.25L20.2397 16.2235C20.2397 16.2235 20.2472 16.2235 20.25 16.2235C20.1301 17.1321 19.6833 17.966 18.9931 18.5691C18.3028 19.1722 17.4166 19.5031 16.5 19.5Z" fill="black"/>
</svg>
