<svg width="25" height="25" viewBox="0 0 25 25" fill="none" xmlns="http://www.w3.org/2000/svg">
<path d="M20 12.6117C20 11.2317 21.12 10.1117 22.5 10.1117V9.11173C22.5 5.11173 21.5 4.11173 17.5 4.11173H7.5C3.5 4.11173 2.5 5.11173 2.5 9.11173V9.61173C3.88 9.61173 5 10.7317 5 12.1117C5 13.4917 3.88 14.6117 2.5 14.6117V15.1117C2.5 19.1117 3.5 20.1117 7.5 20.1117H17.5C21.5 20.1117 22.5 19.1117 22.5 15.1117C21.12 15.1117 20 13.9917 20 12.6117Z" stroke="#5B5B5B" stroke-width="1.5" stroke-linecap="round" stroke-linejoin="round"/>
<path d="M10.5 4.11173L10.5 20.1117" stroke="#5B5B5B" stroke-width="1.5" stroke-linecap="round" stroke-linejoin="round" stroke-dasharray="5 5"/>
</svg>
